<svg xmlns="http://www.w3.org/2000/svg" viewBox="0 0 512 512">
  <rect width="512" height="512" fill="#09090b"/>
  <path d="M416 64H160C142.3 64 128 78.3 128 96V352C128 369.7 142.3 384 160 384H416C433.7 384 448 369.7 448 352V96C448 78.3 433.7 64 416 64Z" fill="none" opacity="0"/>
  <circle cx="256" cy="256" r="200" fill="#9333ea" />
  <path d="M352 128V288C352 323.3 323.3 352 288 352C252.7 352 224 323.3 224 288C224 252.7 252.7 224 288 224C293.6 224 299 224.8 304 226.2V176H208V368C208 403.3 179.3 432 144 432C108.7 432 80 403.3 80 368C80 332.7 108.7 304 144 304C149.6 304 155 304.8 160 306.2V96H352V128Z" fill="#09090b" transform="translate(40, 0) scale(0.8)" />
  <path fill="#000" d="M375.3 128.5L232 165.7v188c-4.8-2.6-10.2-4.1-16-4.1-19.9 0-36 16.1-36 36s16.1 36 36 36 36-16.1 36-36V208.5l96-24.9V274c-4.8-2.6-10.2-4.1-16-4.1-19.9 0-36 16.1-36 36s16.1 36 36 36 36-16.1 36-36V128.5z"/>
</svg>
