<svg xmlns="http://www.w3.org/2000/svg" viewBox="0 0 512 512">
  <defs>
    <filter id="note-shadow" x="-20%" y="-20%" width="140%" height="140%">
      <feDropShadow dx="0" dy="8" stdDeviation="8" flood-color="#000000" flood-opacity="0.25"/>
    </filter>
  </defs>
  
  <rect width="512" height="512" rx="112" fill="#09090b"/>
  
  <circle cx="256" cy="256" r="192" fill="#9333ea"/>
  
  <g transform="translate(-37, 5)" fill="#ffffff" filter="url(#note-shadow)">
    <path d="M415.4,121.7L235.4,166.7c-5.8,1.4-9.9,6.6-9.9,12.5v154.5c-7.8-5.3-17.1-8.5-27.2-8.5 c-26.5,0-48,21.5-48,48s21.5,48,48,48s48-21.5,48-48V206.8l144-36v126.9c-7.8-5.3-17.1-8.5-27.2-8.5c-26.5,0-48,21.5-48,48 s21.5,48,48,48s48-21.5,48-48V132.5C435.3,125.7,429.5,120,422.3,120C419.6,120,417.2,120.8,415.4,121.7z"/>
  </g>
</svg>